<?xml version="1.0" encoding="UTF-8"?>
<svg width="1200" height="800" viewBox="0 0 1200 800" xmlns="http://www.w3.org/2000/svg">
  <defs>
    <!-- Healthcare Pattern -->
    <pattern id="healthcare-icons" x="0" y="0" width="200" height="200" patternUnits="userSpaceOnUse">
      <!-- Medical Cross -->
      <path d="M80,70 h40 v-40 h20 v40 h40 v20 h-40 v40 h-20 v-40 h-40 z" fill="#FFFFFF" fill-opacity="0.07"/>
      
      <!-- Heart Icon -->
      <path d="M40,130 C40,110 60,90 80,110 C100,90 120,110 120,130 C120,150 80,170 80,170 C80,170 40,150 40,130 Z" fill="#FFFFFF" fill-opacity="0.05"/>
      
      <!-- Stethoscope -->
      <path d="M140,30 C160,30 160,50 140,50 C140,70 120,70 120,50 L120,30 L130,30 L130,50 C130,60 150,60 150,50 C150,40 140,40 140,40 L140,30 Z" fill="#FFFFFF" fill-opacity="0.05"/>
      
      <!-- Pill -->
      <rect x="30" y="30" width="30" height="15" rx="7.5" fill="#FFFFFF" fill-opacity="0.06"/>
      
      <!-- DNA Helix -->
      <path d="M160,120 Q180,140 160,160 Q140,180 160,190" stroke="#FFFFFF" stroke-opacity="0.06" stroke-width="3" fill="none"/>
      <path d="M180,120 Q160,140 180,160 Q200,180 180,190" stroke="#FFFFFF" stroke-opacity="0.06" stroke-width="3" fill="none"/>
    </pattern>
    
    <!-- Gradient Overlay -->
    <linearGradient id="blue-gradient" x1="0%" y1="0%" x2="100%" y2="100%">
      <stop offset="0%" stop-color="#007BC3" stop-opacity="0.9"/>
      <stop offset="100%" stop-color="#003D5B" stop-opacity="0.9"/>
    </linearGradient>
  </defs>
  
  <!-- Background -->
  <rect x="0" y="0" width="1200" height="800" fill="url(#blue-gradient)"/>
  
  <!-- Pattern Overlay -->
  <rect x="0" y="0" width="1200" height="800" fill="url(#healthcare-icons)"/>
  
  <!-- Circular Elements -->
  <circle cx="100" cy="100" r="80" fill="#FFFFFF" fill-opacity="0.03"/>
  <circle cx="1100" cy="700" r="120" fill="#FFFFFF" fill-opacity="0.03"/>
  <circle cx="800" cy="200" r="60" fill="#FFFFFF" fill-opacity="0.02"/>
  <circle cx="300" cy="600" r="100" fill="#FFFFFF" fill-opacity="0.02"/>
  
  <!-- Accent Elements -->
  <rect x="0" y="0" width="1200" height="20" fill="#1AAFB6" fill-opacity="0.15"/>
  <rect x="0" y="780" width="1200" height="20" fill="#1AAFB6" fill-opacity="0.15"/>
</svg>